<?xml version="1.0" encoding="UTF-8"?>
<svg width="30" height="30" version="1.1" viewBox="0 0 100 100" xmlns="http://www.w3.org/2000/svg">
 <path d="m27.164 26.664c8.0078-8.0039 20.988-8.0039 28.992 0 7.6484 7.6484 7.9922 19.84 1.0234 27.895l16.656 16.656c0.58594 0.58594 0.58594 1.5352 0 2.1211-0.58594 0.58594-1.5352 0.58594-2.1211 0l-16.656-16.656c-8.0547 6.9688-20.242 6.625-27.895-1.0234-8.0039-8.0039-8.0039-20.984 0-28.992zm2.1211 2.1211c-6.832 6.8359-6.832 17.918 0 24.75 6.8359 6.8359 17.918 6.8359 24.75 0 6.8359-6.832 6.8359-17.914 0-24.75-6.832-6.832-17.914-6.832-24.75 0z" fill-rule="evenodd"/>
</svg>